# xmcd
# 
# Track frame offsets:
#     150
#     13570
#     29187
#     48287
#     64482
#     90412
#     110977
#     126552
# 
# Disc length: 1965
# 
# Revision: 1
# Processed by: cddbd v1.5.2PL0 Copyright (c) Steve Scherf et al.
# Submitted via: fre:ac v1.1beta1pre4
# 
DISCID=7507ab08
DTITLE=Rebecca Folsom and Milestone - Many Miles
DYEAR=2000
DGENRE=Cover
TTITLE0=Chain of Fools
TTITLE1=The Letter
TTITLE2=Angel
TTITLE3=Hard to Handle
TTITLE4=Love me Like a Man
TTITLE5=Black Magic Woman - Oye Como Va
TTITLE6=I Feel Lucky
TTITLE7=Roll Over Beethoven
EXTD=
EXTT0=
EXTT1=
EXTT2=
EXTT3=
EXTT4=
EXTT5=
EXTT6=
EXTT7=
PLAYORDER=
